<svg xmlns="http://www.w3.org/2000/svg" width="24" height="24" viewBox="0 0 48 48"><g><path fill="#4285F4" d="M44.5 20H24v8.5h11.7C34.7 33.9 30.1 37 24 37c-7.2 0-13-5.8-13-13s5.8-13 13-13c3.1 0 5.9 1.1 8.1 2.9l6.4-6.4C34.5 4.5 29.6 2 24 2 12.9 2 4 10.9 4 22s8.9 20 20 20c11 0 19.7-8 19.7-20 0-1.3-.1-2.7-.3-4z"/><path fill="#34A853" d="M6.3 14.7l7 5.1C15.1 16.2 19.2 13 24 13c3.1 0 5.9 1.1 8.1 2.9l6.4-6.4C34.5 4.5 29.6 2 24 2 15.3 2 7.8 7.7 6.3 14.7z"/><path fill="#FBBC05" d="M24 44c5.6 0 10.5-1.8 14.3-4.9l-6.6-5.4C29.7 35.7 27 36.7 24 36.7c-6.1 0-10.7-4.1-12.5-9.6l-7 5.4C7.8 40.3 15.3 44 24 44z"/><path fill="#EA4335" d="M44.5 20H24v8.5h11.7c-1.2 3.2-4.1 5.5-7.7 5.5-4.6 0-8.3-3.7-8.3-8.3s3.7-8.3 8.3-8.3c2.1 0 4 .8 5.5 2.1l6.4-6.4C34.5 4.5 29.6 2 24 2c-7.2 0-13 5.8-13 13s5.8 13 13 13c3.1 0 5.9-1.1 8.1-2.9l6.4 6.4C34.5 43.5 29.6 46 24 46c-11 0-20-8.9-20-20s8.9-20 20-20c5.6 0 10.5 1.8 14.3 4.9l-6.6 5.4C29.7 12.3 27 11.3 24 11.3c-6.1 0-10.7 4.1-12.5 9.6l-7-5.4C7.8 7.7 15.3 4 24 4z"/></g></svg>